# xmcd
#
# Track frame offsets:
#	150
#	17377
#	40117
#	57737
#	74840
#
# Disc length: 1298 seconds
#
# Revision: 1
# Processed by: cddbd v1.5.1PL0 Copyright (c) Steve Scherf et al.
# Submitted via: CDex 1.50Beta5
#
DISCID=43051005
DTITLE=ウルフルズ - Gamusyara~Atsukunare~
DYEAR=1900
DGENRE=Rock
TTITLE0=Gamusyara~Atsukunare~
TTITLE1=Jikenda!
TTITLE2=Dinning Table Blues
TTITLE3=Gamusyara~Atsukunare~(Instrumental)
TTITLE4=Jikenda!(Instrumental)
EXTD=
EXTT0=
EXTT1=
EXTT2=
EXTT3=
EXTT4=
PLAYORDER=
